# xmcd
# 
# Track frame offsets:
#     150
#     15768
#     36935
#     56554
#     77044
#     96440
#     107159
#     125371
#     142458
#     156716
#     171426
#     185566
#     200925
#     213829
#     246012
# 
# Disc length: 3325
# 
# Revision: 0
# Processed by: cddbd v1.5.2PL0 Copyright (c) Steve Scherf et al.
# Submitted via: fre:ac v1.0.17
# 
DISCID=e10cfb0f
DTITLE=Kris Kristofferson - The Very Best of Kris Kristofferson
DYEAR=2011
DGENRE=Country
TTITLE0=Why Me
TTITLE1=To Beat The Devil
TTITLE2=Me And Bobby McGee
TTITLE3=Sunday Morning Coming Down
TTITLE4=The Silver Tounged Devil And I
TTITLE5=Help Me Make It Through The Night
TTITLE6=Sugar Man
TTITLE7=Loving Her Was Easier
TTITLE8=Strainger
TTITLE9=The Taker
TTITLE10=Nobody Wins
TTITLE11=For The Good Times
TTITLE12=Once More With Feeling
TTITLE13=Living Legend
TTITLE14=Data track
EXTD=
EXTT0=
EXTT1=
EXTT2=
EXTT3=
EXTT4=
EXTT5=
EXTT6=
EXTT7=
EXTT8=
EXTT9=
EXTT10=
EXTT11=
EXTT12=
EXTT13=
EXTT14=
PLAYORDER=
